<svg width="133" height="64" viewBox="0 0 133 64" fill="none" xmlns="http://www.w3.org/2000/svg">
<path d="M81.8999 49.1389C81.8999 39.577 81.8999 29.9826 81.8999 20.3963C81.8999 17.3302 83.2946 15.2192 84.673 13.8408C86.0297 12.4814 87.9263 11.8818 90.5827 11.8818C93.2417 11.8818 95.1167 12.4814 96.4788 13.8408C97.8626 15.2192 99.3685 17.3302 99.3685 20.3963C99.3685 27.7088 99.3685 35.0348 99.3685 42.3392C99.3685 43.9401 99.1135 46.0158 101.089 48.0101C103.075 49.9827 104.662 50.0831 105.867 50.0831C107.058 50.0831 108.643 49.9827 110.613 48.0101C112.604 46.0158 112.431 43.9401 112.431 42.3392C112.431 28.6069 112.431 13.9602 112.431 0.246911C110.634 0.246911 108.778 0.246911 106.998 0.246911C106.998 12.6008 106.998 25.9125 106.998 38.2665C106.998 38.9204 106.638 39.4522 105.867 39.4522C105.083 39.4522 104.934 38.9204 104.934 38.2665C104.934 31.8222 104.934 20.9525 104.934 14.7986C104.934 10.8968 104.31 6.86207 100.967 3.70101C97.6184 0.537245 96.1396 1.15424e-07 90.5691 1.15424e-07C85.0094 1.15424e-07 83.5442 0.537245 80.1797 3.70101C76.8341 6.86207 76.4162 10.8968 76.4162 14.7986C76.4162 22.7515 76.4162 41.9295 76.4162 43.5412C76.4162 46.6073 75.0107 48.7481 73.6513 50.132C72.2757 51.4914 70.3844 52.091 67.7308 52.091C65.069 52.091 63.1723 51.4914 61.8211 50.132C60.4481 48.7481 58.9232 46.6073 58.9232 43.5412C58.9232 33.9495 58.9232 24.3768 58.9232 14.7824C58.9232 10.8724 58.2992 6.86207 54.9373 3.70101C51.6026 0.537245 50.2785 1.15424e-07 44.6998 1.15424e-07C39.1401 1.15424e-07 37.5176 0.537245 34.172 3.70101C30.8102 6.86207 30.5008 10.8724 30.5008 14.7824C30.5008 22.5995 30.5008 30.471 30.5008 38.2665C30.5008 38.9204 30.2322 39.4522 29.448 39.4522C28.672 39.4522 28.3817 38.9204 28.3817 38.2665C28.3817 30.471 28.3817 22.5995 28.3817 14.7824C28.3817 10.8806 27.7929 6.86207 24.4419 3.70101C21.0963 0.537245 19.6338 1.15424e-07 14.047 1.15424e-07C8.48738 1.15424e-07 7.02216 0.537245 3.67388 3.70101C0.312036 6.86207 -4.81993e-07 10.8806 -4.81993e-07 14.7824V63.9049C1.7881 63.9049 3.58163 63.9049 5.37787 63.9049C5.37787 49.7819 5.37787 34.5302 5.37787 20.4071C5.37787 17.3411 6.78339 15.2192 8.15092 13.8408C9.51031 12.4814 11.4097 11.8818 14.066 11.8818C16.7251 11.8818 18.6136 12.4814 19.9866 13.8408C21.3405 15.2192 22.7298 17.3411 22.7298 20.4071C22.7298 27.6952 22.7298 35.0538 22.7298 42.3392C22.7298 43.9401 22.6077 46.0158 24.5857 48.0101C26.5638 49.9827 28.1565 50.0831 29.3368 50.0831C30.5388 50.0831 32.1207 49.9827 34.096 48.0101C36.0849 46.0158 35.876 43.9401 35.876 42.3392C35.876 40.6976 35.876 26.0753 35.876 20.4071C35.876 17.3411 37.2896 15.2192 38.649 13.8408C40.0301 12.4814 42.0407 11.8818 44.6998 11.8818C47.3508 11.8818 49.3532 12.4814 50.7126 13.8408C52.0856 15.2192 53.5182 17.3411 53.5182 20.4071C53.5182 29.9826 53.5182 39.5526 53.5182 49.1172C53.5182 53.1031 53.8574 57.1243 57.203 60.2772C60.5485 63.4355 62.03 63.9782 67.5924 63.9782C73.1765 63.9782 74.6471 63.4355 77.99 60.2772C81.3355 57.1243 81.8999 53.0678 81.8999 49.1389ZM116.121 60.2773C119.464 57.1244 120.061 53.0679 120.061 49.139C120.014 33.1654 120.014 16.2395 120.014 0.246997C118.264 0.246997 116.446 0.246997 114.707 0.246997C114.707 14.3483 114.707 29.4074 114.707 43.5169C114.707 46.5721 113.142 48.7482 111.779 50.132C110.398 51.4914 108.523 52.0911 105.867 52.0911C103.205 52.0911 101.311 51.4914 99.9465 50.132C98.5654 48.7482 97.2467 46.5721 97.2467 43.5169C97.2467 35.8272 97.2467 29.2745 97.2467 21.593C97.2467 19.9921 97.4637 17.9544 95.483 15.9736C93.5104 13.9956 91.9366 13.8897 90.7319 13.8897C89.5462 13.8897 87.9534 13.9956 85.9754 15.9736C83.9919 17.9544 84.2551 19.9921 84.2551 21.593C84.2551 35.7133 84.2551 49.7766 84.2551 63.905C86.2277 63.905 87.5437 63.905 89.5082 63.905C89.5082 51.5267 89.5082 38.025 89.5082 25.6413C89.5082 24.9955 89.7985 24.5288 90.5827 24.5288C91.3723 24.5288 91.6382 24.9955 91.6382 25.6413C91.6951 26.5096 91.6382 44.1952 91.6382 49.139C91.6382 53.0679 91.9882 57.1244 95.331 60.2773C98.6983 63.4356 100.172 63.9783 105.726 63.9783C111.288 63.9783 112.762 63.4356 116.121 60.2773ZM51.1142 21.5928C51.1142 19.9675 51.5185 17.9542 49.5296 15.9735C47.5597 13.9954 45.8801 13.8896 44.6998 13.8896C43.5059 13.8896 41.9973 13.9954 40.0193 15.9735C38.0304 17.9542 38.1335 19.9675 38.1335 21.5928C38.1335 28.8863 38.1335 36.2314 38.1335 43.5276C38.1335 46.591 36.6222 48.7481 35.2546 50.1319C33.9034 51.494 32.0095 52.0937 29.3368 52.0937C26.6831 52.0937 24.7946 51.494 23.4271 50.1319C22.065 48.7481 20.6269 46.591 20.6269 43.5276C20.6269 35.8434 20.6269 29.2771 20.6269 21.5928C20.6269 19.992 20.7219 17.9542 18.7439 15.9735C16.7577 13.9954 15.1948 13.8896 13.9928 13.8896C12.8043 13.8896 11.217 13.9954 9.23898 15.9735C7.25823 17.9542 7.40475 19.992 7.40475 21.5928C7.40475 31.4125 7.40475 62.2905 7.40475 63.9076C9.23898 63.9076 11.1763 63.9076 13.0133 63.9076C13.0133 51.5374 13.0133 38.0439 13.0133 25.6764C13.0133 25.009 13.2792 24.5287 14.066 24.5287C14.8421 24.5287 15.1378 25.009 15.1378 25.6547C15.1378 33.48 15.1378 41.3434 15.1378 49.1388C15.1378 53.0678 15.4661 57.1269 18.8253 60.2772C22.1844 63.4382 23.6578 63.9782 29.2147 63.9782C34.7934 63.9782 36.2559 63.4382 39.6041 60.2772C42.9551 57.1269 43.5059 53.0678 43.5059 49.1388C43.5059 41.3434 43.5059 33.48 43.5059 25.6547C43.5059 25.0279 43.913 24.5287 44.6998 24.5287C45.4758 24.5287 45.8747 25.0279 45.8747 25.6547C45.8747 38.0249 45.8747 51.5374 45.8747 63.9076C47.614 63.9076 49.3668 63.9076 51.1142 63.9076C51.1142 50.159 51.1142 35.317 51.1142 21.5928ZM61.2133 42.342C61.2133 43.9428 60.9935 46.0186 62.977 48.0129C64.9387 49.9828 66.5396 50.0859 67.7308 50.0859C68.9219 50.0859 70.5038 49.9828 72.4873 48.0129C74.4708 46.0186 74.2591 43.9428 74.2591 42.342C74.2591 33.0433 74.2591 1.88856 74.2591 0.246975C72.5117 0.246975 70.6069 0.246975 68.8514 0.246975C68.8514 12.6036 68.8514 25.9126 68.8514 38.2692C68.8514 38.9231 68.5068 39.4522 67.7308 39.4522C66.9548 39.4522 66.5586 38.9231 66.5586 38.2692C66.5586 25.9126 66.5586 12.6036 66.5586 0.246975C64.8166 0.246975 62.9607 0.246975 61.2133 0.246975C61.2133 13.963 61.2133 28.6097 61.2133 42.342ZM122.416 64L132.802 63.981L132.775 0.246992H122.416V64Z" fill="#C62034"/>
</svg>
